<svg id="visual" viewBox="0 0 960 340" width="960" height="340" xmlns="http://www.w3.org/2000/svg" xmlns:xlink="http://www.w3.org/1999/xlink" version="1.1"><rect x="0" y="0" width="960" height="340" fill="#001220"></rect><defs><linearGradient id="grad1_0" x1="64.6%" y1="100%" x2="100%" y2="0%"><stop offset="-6.4705882352941195%" stop-color="#b7dccd" stop-opacity="1"></stop><stop offset="106.47058823529412%" stop-color="#b7dccd" stop-opacity="1"></stop></linearGradient></defs><defs><linearGradient id="grad1_1" x1="64.6%" y1="100%" x2="100%" y2="0%"><stop offset="-6.4705882352941195%" stop-color="#b7dccd" stop-opacity="1"></stop><stop offset="106.47058823529412%" stop-color="#4c7077" stop-opacity="1"></stop></linearGradient></defs><defs><linearGradient id="grad1_2" x1="64.6%" y1="100%" x2="100%" y2="0%"><stop offset="-6.4705882352941195%" stop-color="#001220" stop-opacity="1"></stop><stop offset="106.47058823529412%" stop-color="#4c7077" stop-opacity="1"></stop></linearGradient></defs><defs><linearGradient id="grad2_0" x1="0%" y1="100%" x2="35.4%" y2="0%"><stop offset="-6.4705882352941195%" stop-color="#b7dccd" stop-opacity="1"></stop><stop offset="106.47058823529412%" stop-color="#b7dccd" stop-opacity="1"></stop></linearGradient></defs><defs><linearGradient id="grad2_1" x1="0%" y1="100%" x2="35.4%" y2="0%"><stop offset="-6.4705882352941195%" stop-color="#4c7077" stop-opacity="1"></stop><stop offset="106.47058823529412%" stop-color="#b7dccd" stop-opacity="1"></stop></linearGradient></defs><defs><linearGradient id="grad2_2" x1="0%" y1="100%" x2="35.4%" y2="0%"><stop offset="-6.4705882352941195%" stop-color="#4c7077" stop-opacity="1"></stop><stop offset="106.47058823529412%" stop-color="#001220" stop-opacity="1"></stop></linearGradient></defs><g transform="translate(960, 340)"><path d="M-170 0C-171.8 -16.4 -173.5 -32.7 -164.2 -44C-154.9 -55.3 -134.5 -61.5 -124.7 -72C-114.9 -82.5 -115.8 -97.4 -110.3 -110.3C-104.9 -123.2 -93.1 -134.2 -80 -138.6C-66.9 -142.9 -52.4 -140.7 -38.8 -144.9C-25.3 -149 -12.6 -159.5 0 -170L0 0Z" fill="#233e4b"></path><path d="M-113.3 0C-114.5 -10.9 -115.7 -21.8 -109.5 -29.3C-103.3 -36.9 -89.7 -41 -83.1 -48C-76.6 -55 -77.2 -64.9 -73.5 -73.5C-69.9 -82.1 -62.1 -89.5 -53.3 -92.4C-44.6 -95.3 -34.9 -93.8 -25.9 -96.6C-16.8 -99.4 -8.4 -106.3 0 -113.3L0 0Z" fill="#7da5a2"></path><path d="M-56.7 0C-57.3 -5.5 -57.8 -10.9 -54.7 -14.7C-51.6 -18.4 -44.8 -20.5 -41.6 -24C-38.3 -27.5 -38.6 -32.5 -36.8 -36.8C-35 -41.1 -31 -44.7 -26.7 -46.2C-22.3 -47.6 -17.5 -46.9 -12.9 -48.3C-8.4 -49.7 -4.2 -53.2 0 -56.7L0 0Z" fill="#b7dccd"></path></g><g transform="translate(0, 0)"><path d="M170 0C155.3 10.7 140.5 21.4 140.1 37.5C139.6 53.6 153.4 75.1 147.2 85C141.1 94.9 115 93.1 101.8 101.8C88.6 110.5 88.2 129.7 79.5 137.7C70.8 145.6 53.7 142.3 39.1 145.9C24.4 149.4 12.2 159.7 0 170L0 0Z" fill="#233e4b"></path><path d="M113.3 0C103.5 7.1 93.7 14.3 93.4 25C93.1 35.8 102.2 50.1 98.1 56.7C94.1 63.2 76.7 62.1 67.9 67.9C59.1 73.7 58.8 86.5 53 91.8C47.2 97.1 35.8 94.9 26.1 97.2C16.3 99.6 8.1 106.5 0 113.3L0 0Z" fill="#7da5a2"></path><path d="M56.7 0C51.8 3.6 46.8 7.1 46.7 12.5C46.5 17.9 51.1 25 49.1 28.3C47 31.6 38.3 31 33.9 33.9C29.5 36.8 29.4 43.2 26.5 45.9C23.6 48.5 17.9 47.4 13 48.6C8.1 49.8 4.1 53.2 0 56.7L0 0Z" fill="#b7dccd"></path></g></svg>